<svg width="170" height="48" viewBox="0 0 170 48" fill="none" xmlns="http://www.w3.org/2000/svg">
<path d="M139 24C139 37.2548 110.012 48 88 48C65.9881 48 37 37.2548 37 24C37 10.7452 65.9881 0 88 0C110.012 0 139 10.7452 139 24Z" fill="#F8D69E"/>
<path d="M18.0328 23.412C18.7768 23.688 19.3528 24.09 19.7608 24.618C20.1688 25.146 20.3728 25.782 20.3728 26.526C20.3728 27.63 19.9168 28.488 19.0048 29.1C18.0928 29.7 16.7728 30 15.0448 30H7.95276V17.4H14.6848C16.3648 17.4 17.6308 17.7 18.4828 18.3C19.3468 18.9 19.7788 19.698 19.7788 20.694C19.7788 21.282 19.6288 21.81 19.3288 22.278C19.0408 22.746 18.6088 23.124 18.0328 23.412ZM12.1288 20.37V22.242H14.1088C15.0328 22.242 15.4948 21.93 15.4948 21.306C15.4948 20.682 15.0328 20.37 14.1088 20.37H12.1288ZM14.6848 27.03C15.6208 27.03 16.0888 26.7 16.0888 26.04C16.0888 25.38 15.6208 25.05 14.6848 25.05H12.1288V27.03H14.6848ZM21.7486 20.154H25.8166V30H21.7486V20.154ZM23.7826 19.362C23.0506 19.362 22.4566 19.17 22.0006 18.786C21.5566 18.39 21.3346 17.892 21.3346 17.292C21.3346 16.692 21.5566 16.2 22.0006 15.816C22.4566 15.42 23.0506 15.222 23.7826 15.222C24.5266 15.222 25.1206 15.408 25.5646 15.78C26.0086 16.152 26.2306 16.632 26.2306 17.22C26.2306 17.844 26.0086 18.36 25.5646 18.768C25.1206 19.164 24.5266 19.362 23.7826 19.362ZM34.1897 19.974C35.0537 19.974 35.8457 20.184 36.5657 20.604C37.2977 21.012 37.8737 21.606 38.2937 22.386C38.7257 23.154 38.9417 24.048 38.9417 25.068C38.9417 26.088 38.7257 26.988 38.2937 27.768C37.8737 28.548 37.2977 29.148 36.5657 29.568C35.8457 29.976 35.0537 30.18 34.1897 30.18C32.9777 30.18 32.0777 29.85 31.4897 29.19V30H27.6197V16.644H31.6877V20.82C32.2637 20.256 33.0977 19.974 34.1897 19.974ZM33.2177 27.012C33.6857 27.012 34.0697 26.844 34.3697 26.508C34.6697 26.16 34.8197 25.68 34.8197 25.068C34.8197 24.456 34.6697 23.982 34.3697 23.646C34.0697 23.31 33.6857 23.142 33.2177 23.142C32.7497 23.142 32.3657 23.31 32.0657 23.646C31.7657 23.982 31.6157 24.456 31.6157 25.068C31.6157 25.68 31.7657 26.16 32.0657 26.508C32.3657 26.844 32.7497 27.012 33.2177 27.012ZM40.2232 16.644H44.2912V30H40.2232V16.644ZM56.5703 25.068C56.5703 25.128 56.5523 25.446 56.5163 26.022H49.6763C49.8203 26.394 50.0603 26.682 50.3963 26.886C50.7323 27.078 51.1523 27.174 51.6563 27.174C52.0883 27.174 52.4483 27.12 52.7363 27.012C53.0363 26.904 53.3603 26.718 53.7083 26.454L55.8323 28.596C54.8723 29.652 53.4383 30.18 51.5303 30.18C50.3423 30.18 49.2983 29.964 48.3983 29.532C47.4983 29.088 46.8023 28.476 46.3103 27.696C45.8183 26.916 45.5723 26.04 45.5723 25.068C45.5723 24.084 45.8123 23.208 46.2923 22.44C46.7843 21.66 47.4503 21.054 48.2903 20.622C49.1423 20.19 50.0963 19.974 51.1523 19.974C52.1483 19.974 53.0543 20.172 53.8703 20.568C54.6983 20.964 55.3523 21.546 55.8323 22.314C56.3243 23.082 56.5703 24 56.5703 25.068ZM51.1883 22.746C50.7683 22.746 50.4203 22.86 50.1443 23.088C49.8683 23.316 49.6883 23.64 49.6043 24.06H52.7723C52.6883 23.652 52.5083 23.334 52.2323 23.106C51.9563 22.866 51.6083 22.746 51.1883 22.746ZM76.8406 17.4L71.5126 30H67.3366L62.0086 17.4H66.5806L69.5866 24.762L72.6646 17.4H76.8406ZM77.4889 20.154H81.5569V30H77.4889V20.154ZM79.5229 19.362C78.7909 19.362 78.1969 19.17 77.7409 18.786C77.2969 18.39 77.0749 17.892 77.0749 17.292C77.0749 16.692 77.2969 16.2 77.7409 15.816C78.1969 15.42 78.7909 15.222 79.5229 15.222C80.2669 15.222 80.8609 15.408 81.3049 15.78C81.7489 16.152 81.9709 16.632 81.9709 17.22C81.9709 17.844 81.7489 18.36 81.3049 18.768C80.8609 19.164 80.2669 19.362 79.5229 19.362ZM87.212 30.18C86.372 30.18 85.544 30.09 84.728 29.91C83.912 29.73 83.252 29.496 82.748 29.208L83.864 26.526C84.32 26.802 84.86 27.018 85.484 27.174C86.108 27.33 86.714 27.408 87.302 27.408C87.77 27.408 88.094 27.372 88.274 27.3C88.466 27.216 88.562 27.096 88.562 26.94C88.562 26.784 88.442 26.676 88.202 26.616C87.974 26.556 87.596 26.496 87.068 26.436C86.264 26.34 85.58 26.22 85.016 26.076C84.452 25.92 83.954 25.626 83.522 25.194C83.102 24.762 82.892 24.144 82.892 23.34C82.892 22.704 83.084 22.134 83.468 21.63C83.852 21.126 84.422 20.724 85.178 20.424C85.946 20.124 86.864 19.974 87.932 19.974C88.676 19.974 89.402 20.046 90.11 20.19C90.83 20.322 91.442 20.52 91.946 20.784L90.83 23.466C89.966 22.986 89.018 22.746 87.986 22.746C87.098 22.746 86.654 22.902 86.654 23.214C86.654 23.37 86.774 23.484 87.014 23.556C87.254 23.616 87.632 23.676 88.148 23.736C88.952 23.832 89.63 23.958 90.182 24.114C90.746 24.27 91.238 24.564 91.658 24.996C92.09 25.428 92.306 26.046 92.306 26.85C92.306 27.462 92.114 28.02 91.73 28.524C91.346 29.028 90.77 29.43 90.002 29.73C89.234 30.03 88.304 30.18 87.212 30.18ZM104.302 20.154V30H100.432V29.064C100.072 29.436 99.6517 29.718 99.1717 29.91C98.6917 30.09 98.1817 30.18 97.6417 30.18C96.3937 30.18 95.3917 29.802 94.6357 29.046C93.8797 28.278 93.5017 27.126 93.5017 25.59V20.154H97.5697V24.888C97.5697 25.56 97.6777 26.04 97.8937 26.328C98.1097 26.616 98.4277 26.76 98.8477 26.76C99.2437 26.76 99.5737 26.604 99.8377 26.292C100.102 25.968 100.234 25.464 100.234 24.78V20.154H104.302ZM110.516 19.974C112.244 19.974 113.564 20.364 114.476 21.144C115.388 21.912 115.844 23.1 115.844 24.708V30H112.064V28.704C111.596 29.688 110.666 30.18 109.274 30.18C108.494 30.18 107.828 30.048 107.276 29.784C106.736 29.508 106.322 29.142 106.034 28.686C105.758 28.218 105.62 27.696 105.62 27.12C105.62 26.148 105.992 25.41 106.736 24.906C107.48 24.402 108.608 24.15 110.12 24.15H111.758C111.626 23.382 111.008 22.998 109.904 22.998C109.46 22.998 109.01 23.07 108.554 23.214C108.098 23.346 107.708 23.532 107.384 23.772L106.088 21.09C106.652 20.742 107.33 20.472 108.122 20.28C108.926 20.076 109.724 19.974 110.516 19.974ZM110.498 27.732C110.786 27.732 111.044 27.654 111.272 27.498C111.5 27.342 111.668 27.108 111.776 26.796V26.112H110.768C109.94 26.112 109.526 26.388 109.526 26.94C109.526 27.168 109.61 27.36 109.778 27.516C109.958 27.66 110.198 27.732 110.498 27.732ZM117.602 16.644H121.67V30H117.602V16.644ZM123.473 20.154H127.541V30H123.473V20.154ZM125.507 19.362C124.775 19.362 124.181 19.17 123.725 18.786C123.281 18.39 123.059 17.892 123.059 17.292C123.059 16.692 123.281 16.2 123.725 15.816C124.181 15.42 124.775 15.222 125.507 15.222C126.251 15.222 126.845 15.408 127.289 15.78C127.733 16.152 127.955 16.632 127.955 17.22C127.955 17.844 127.733 18.36 127.289 18.768C126.845 19.164 126.251 19.362 125.507 19.362ZM133.196 30.18C132.356 30.18 131.528 30.09 130.712 29.91C129.896 29.73 129.236 29.496 128.732 29.208L129.848 26.526C130.304 26.802 130.844 27.018 131.468 27.174C132.092 27.33 132.698 27.408 133.286 27.408C133.754 27.408 134.078 27.372 134.258 27.3C134.45 27.216 134.546 27.096 134.546 26.94C134.546 26.784 134.426 26.676 134.186 26.616C133.958 26.556 133.58 26.496 133.052 26.436C132.248 26.34 131.564 26.22 131 26.076C130.436 25.92 129.938 25.626 129.506 25.194C129.086 24.762 128.876 24.144 128.876 23.34C128.876 22.704 129.068 22.134 129.452 21.63C129.836 21.126 130.406 20.724 131.162 20.424C131.93 20.124 132.848 19.974 133.916 19.974C134.66 19.974 135.386 20.046 136.094 20.19C136.814 20.322 137.426 20.52 137.93 20.784L136.814 23.466C135.95 22.986 135.002 22.746 133.97 22.746C133.082 22.746 132.638 22.902 132.638 23.214C132.638 23.37 132.758 23.484 132.998 23.556C133.238 23.616 133.616 23.676 134.132 23.736C134.936 23.832 135.614 23.958 136.166 24.114C136.73 24.27 137.222 24.564 137.642 24.996C138.074 25.428 138.29 26.046 138.29 26.85C138.29 27.462 138.098 28.02 137.714 28.524C137.33 29.028 136.754 29.43 135.986 29.73C135.218 30.03 134.288 30.18 133.196 30.18ZM149.998 25.068C149.998 25.128 149.98 25.446 149.944 26.022H143.104C143.248 26.394 143.488 26.682 143.824 26.886C144.16 27.078 144.58 27.174 145.084 27.174C145.516 27.174 145.876 27.12 146.164 27.012C146.464 26.904 146.788 26.718 147.136 26.454L149.26 28.596C148.3 29.652 146.866 30.18 144.958 30.18C143.77 30.18 142.726 29.964 141.826 29.532C140.926 29.088 140.23 28.476 139.738 27.696C139.246 26.916 139 26.04 139 25.068C139 24.084 139.24 23.208 139.72 22.44C140.212 21.66 140.878 21.054 141.718 20.622C142.57 20.19 143.524 19.974 144.58 19.974C145.576 19.974 146.482 20.172 147.298 20.568C148.126 20.964 148.78 21.546 149.26 22.314C149.752 23.082 149.998 24 149.998 25.068ZM144.616 22.746C144.196 22.746 143.848 22.86 143.572 23.088C143.296 23.316 143.116 23.64 143.032 24.06H146.2C146.116 23.652 145.936 23.334 145.66 23.106C145.384 22.866 145.036 22.746 144.616 22.746ZM162.172 16.644V30H158.302V29.19C157.714 29.85 156.814 30.18 155.602 30.18C154.738 30.18 153.94 29.976 153.208 29.568C152.488 29.148 151.912 28.548 151.48 27.768C151.06 26.988 150.85 26.088 150.85 25.068C150.85 24.048 151.06 23.154 151.48 22.386C151.912 21.606 152.488 21.012 153.208 20.604C153.94 20.184 154.738 19.974 155.602 19.974C156.694 19.974 157.528 20.256 158.104 20.82V16.644H162.172ZM156.574 27.012C157.042 27.012 157.426 26.844 157.726 26.508C158.026 26.16 158.176 25.68 158.176 25.068C158.176 24.456 158.026 23.982 157.726 23.646C157.426 23.31 157.042 23.142 156.574 23.142C156.106 23.142 155.722 23.31 155.422 23.646C155.122 23.982 154.972 24.456 154.972 25.068C154.972 25.68 155.122 26.16 155.422 26.508C155.722 26.844 156.106 27.012 156.574 27.012Z" fill="#2F2E41"/>
</svg>
