<svg width="527" height="365" viewBox="0 0 527 365" fill="none" xmlns="http://www.w3.org/2000/svg">
<g clip-path="url(#clip0)">
<path d="M61.4148 316.208C61.4148 316.208 -5.61642 285.381 17.9316 264.004C41.4796 242.627 61.4148 316.208 61.4148 316.208Z" fill="#CDC8CD"/>
<path d="M60.2481 323.401C60.2481 323.401 29.4381 222.271 74.807 227.108C120.176 231.944 60.2481 323.401 60.2481 323.401Z" fill="#CDC8CD"/>
<path d="M37.7842 314.432L39.0773 331.349L39.0978 331.641C39.0966 334.283 39.2302 336.923 39.4981 339.551C41.2531 356.806 48.7964 364.67 57.6123 364.67C66.4282 364.67 73.643 356.806 75.398 339.551C75.6659 336.923 75.7995 334.283 75.7983 331.641L75.8085 331.405L75.8137 331.349L77.1119 314.432H37.7842Z" fill="#CDC8CD"/>
<path d="M75.8136 331.349L75.8085 331.405L75.7983 331.641C75.7995 334.283 75.6659 336.923 75.398 339.551H39.4981C39.2302 336.923 39.0966 334.283 39.0978 331.641L39.0773 331.349H75.8136Z" fill="white"/>
<path d="M498.609 326.554C498.609 326.554 446.712 302.687 464.944 286.136C483.175 269.586 498.609 326.554 498.609 326.554Z" fill="#CDC8CD"/>
<path d="M497.706 332.123C497.706 332.123 473.852 253.826 508.977 257.571C544.103 261.315 497.706 332.123 497.706 332.123Z" fill="#CDC8CD"/>
<path d="M480.314 325.179L481.315 338.276L481.331 338.502C481.33 340.548 481.433 342.592 481.641 344.626C483 357.985 488.84 364.074 495.665 364.074C502.49 364.074 508.076 357.985 509.435 344.626C509.642 342.592 509.746 340.548 509.745 338.502L509.753 338.32L509.757 338.276L510.762 325.179H480.314Z" fill="#CDC8CD"/>
<path d="M509.757 338.276L509.753 338.32L509.745 338.502C509.746 340.548 509.643 342.592 509.435 344.626H481.641C481.433 342.592 481.33 340.548 481.331 338.502L481.315 338.276H509.757Z" fill="white"/>
<path d="M174.711 108.87V85.8616H171.13V108.87C170.103 109.285 169.252 110.044 168.724 111.017C168.195 111.99 168.022 113.116 168.234 114.203C168.445 115.289 169.029 116.268 169.884 116.973C170.739 117.677 171.812 118.062 172.92 118.062C174.029 118.062 175.102 117.677 175.957 116.973C176.812 116.268 177.396 115.289 177.607 114.203C177.819 113.116 177.646 111.99 177.117 111.017C176.589 110.044 175.738 109.285 174.711 108.87Z" fill="#CDC8CD"/>
<path d="M183.067 341.061H158.596V44.1233H149.046V341.061H124.575C121.675 341.061 118.803 341.632 116.124 342.741C113.444 343.849 111.01 345.474 108.959 347.523C106.908 349.572 105.282 352.004 104.172 354.68C103.062 357.357 102.491 360.226 102.491 363.123V363.123H205.151V363.123C205.151 360.226 204.58 357.357 203.47 354.68C202.36 352.004 200.734 349.572 198.683 347.523C196.632 345.474 194.198 343.849 191.518 342.741C188.839 341.632 185.967 341.061 183.067 341.061V341.061Z" fill="#CDC8CD"/>
<path d="M102.54 88.2466H205.102L198.83 9.9335C198.601 7.2331 197.368 4.71616 195.375 2.87784C193.381 1.03952 190.772 0.0128969 188.059 -3.8147e-05H119.583C116.87 0.0128963 114.26 1.03951 112.267 2.87783C110.274 4.71615 109.041 7.23308 108.812 9.93347L102.54 88.2466Z" fill="#F8D69E"/>
<path d="M245.343 225.697C244.378 225.536 243.391 225.569 242.439 225.793C241.487 226.017 240.59 226.428 239.798 227.001C239.006 227.575 238.336 228.3 237.827 229.134C237.318 229.968 236.98 230.895 236.833 231.861L233.946 250.792L243.77 253.395L250.969 235.757C251.387 234.732 251.569 233.626 251.501 232.522C251.434 231.417 251.118 230.342 250.578 229.375C250.037 228.409 249.286 227.577 248.38 226.94C247.474 226.303 246.436 225.878 245.343 225.697Z" fill="#A0616A"/>
<path d="M245.16 250.756C250.612 272.402 248.265 292.2 227.962 307.745C203.611 301.039 187.415 284.859 177.533 261.345C176.919 259.883 176.607 258.312 176.617 256.726C176.628 255.141 176.959 253.573 177.593 252.119C178.226 250.665 179.148 249.355 180.302 248.266C181.456 247.178 182.819 246.335 184.309 245.787V245.787C186.547 244.965 188.983 244.843 191.292 245.438C193.601 246.032 195.675 247.315 197.236 249.116L221.129 276.665L232.338 248.886L245.16 250.756Z" fill="#F8D69E"/>
<path d="M369.928 364.32C347.693 363.14 333.88 355.513 330.535 339.873L334.116 333.314L375.117 351.974C376.153 352.445 377.024 353.213 377.621 354.18C378.218 355.147 378.514 356.27 378.471 357.405C378.428 358.541 378.047 359.638 377.378 360.557C376.709 361.476 375.782 362.175 374.714 362.566L369.928 364.32Z" fill="#CDC8CD"/>
<path d="M352.747 364.476C341.194 364.127 330.084 364.235 319.556 364.947C317.71 365.073 315.888 364.467 314.486 363.26C313.084 362.052 312.215 360.341 312.068 358.498L311.435 350.606L302.483 336.295L310.242 328.544C323.281 341.518 337.582 352.416 354.567 358.893C355.112 359.267 355.522 359.807 355.735 360.433C355.948 361.059 355.953 361.736 355.748 362.365C355.543 362.993 355.14 363.539 354.599 363.919C354.058 364.3 353.408 364.495 352.747 364.476V364.476Z" fill="#CDC8CD"/>
<path d="M289.948 308.271C275.196 334.641 260.687 352.418 241.603 361.935C218.123 369.676 200.962 359.419 187.587 338.382L226.383 312.743L232.053 318.408L283.441 279.342C284.697 278.154 286.37 277.51 288.098 277.548C289.827 277.587 291.47 278.305 292.671 279.547L336.504 333.314L331.132 342.258L289.948 308.271Z" fill="#2F2E41"/>
<path d="M303.079 339.277L282.786 308.271L287.561 299.327L314.42 327.352L303.079 339.277Z" fill="#2F2E41"/>
<path d="M186.094 240.297C197.302 240.297 206.388 231.221 206.388 220.024C206.388 208.828 197.302 199.752 186.094 199.752C174.887 199.752 165.801 208.828 165.801 220.024C165.801 231.221 174.887 240.297 186.094 240.297Z" fill="#A0616A"/>
<path d="M191.466 257.589L168.785 249.838C172.142 244.51 173.613 238.211 172.963 231.95H191.466C190.414 241.047 190.256 249.676 191.466 257.589Z" fill="#A0616A"/>
<path d="M239.812 311.849C236.412 313.243 236.163 317.765 232.948 319.302C217.406 326.731 200.963 332.758 189.676 343.45C163.298 325.557 138.85 269.981 170.576 245.664C181.405 251.994 191.079 256.525 190.869 245.664L239.812 311.849Z" fill="#F8D69E"/>
<path opacity="0.2" d="M226.084 287.998L215.042 284.123L193.257 301.116L183.491 265.994C182.814 263.558 181.716 264.793 180.14 266.485C178.498 264.966 176.454 263.948 174.252 263.551C172.049 263.154 169.778 263.395 167.708 264.244C165.638 265.094 163.853 266.517 162.566 268.347C161.279 270.176 160.542 272.335 160.442 274.568C159.281 300.044 166.971 321.598 186.094 338.084C211.107 332.734 221.722 315.852 226.084 293.961L224.902 293.173C225.337 291.482 225.732 289.757 226.084 287.998Z" fill="black"/>
<path d="M188.825 193.356C195.519 194.884 203.138 197.049 203.565 199.061C210.451 200.794 215.648 204.946 216.709 211.276C216.798 211.823 216.766 212.383 216.614 212.916C216.463 213.449 216.196 213.943 215.833 214.362C215.47 214.781 215.02 215.116 214.513 215.342C214.007 215.569 213.457 215.681 212.902 215.672C209.158 215.624 203.536 215.266 199.824 213.717C189.041 220.658 187.231 238.711 191.94 251L184.529 250.321L176.863 227.9L174.904 249.44L157.994 247.206L160.172 219.74C160.841 213.266 163.047 207.045 166.605 201.594C166.974 201.046 167.379 200.523 167.815 200.027C170.388 197.124 173.7 194.97 177.399 193.796C181.098 192.621 185.046 192.469 188.825 193.356V193.356Z" fill="#2F2E41"/>
<path d="M226.978 261.418L245.55 283.231L273.409 250.385L254.586 227.568L226.978 261.418Z" fill="#3F3D56"/>
<path d="M268.641 251.137L246.554 233.085C247.809 230.076 253.833 231.079 253.833 231.079L271.122 248.589C271.724 249.198 272.24 249.887 272.656 250.636V250.636L268.641 251.137Z" fill="#F2F2F2"/>
<path d="M269.644 249.884L244.546 230.327L216.687 272.449L242.915 290.126C245.425 291.129 247.934 289.374 247.934 289.374L273.535 250.26L269.644 249.884Z" fill="#3F3D56"/>
<path d="M247.676 236.431L247.439 236.761L263.503 248.293L263.74 247.963L247.676 236.431Z" fill="#F8D69E"/>
<path d="M263.953 252.279L242.871 284.122L243.21 284.346L264.292 252.503L263.953 252.279Z" fill="#F8D69E"/>
<path d="M223.586 272.534L223.345 272.861L240.408 285.403L240.649 285.075L223.586 272.534Z" fill="#F8D69E"/>
<path d="M244.63 236.98L222.795 268.322L223.128 268.554L244.964 237.212L244.63 236.98Z" fill="#F8D69E"/>
<path d="M251.375 230.83L251.205 231.015L271.066 249.224L271.235 249.039L251.375 230.83Z" fill="#B3B3B3"/>
<path d="M249.721 230.986L249.554 231.174L270.311 249.48L270.477 249.292L249.721 230.986Z" fill="#B3B3B3"/>
<path d="M248.422 231.351L248.261 231.544L269.808 249.486L269.969 249.294L248.422 231.351Z" fill="#B3B3B3"/>
<path d="M237.003 267.821C236.2 267.263 235.294 266.87 234.338 266.665C233.382 266.46 232.394 266.446 231.433 266.625C230.472 266.804 229.555 267.173 228.737 267.708C227.92 268.244 227.217 268.937 226.669 269.747L215.938 285.613L223.697 292.172L237.769 279.319C238.586 278.573 239.225 277.651 239.638 276.624C240.051 275.597 240.227 274.491 240.153 273.386C240.08 272.282 239.759 271.208 239.213 270.245C238.668 269.282 237.912 268.453 237.003 267.821V267.821Z" fill="#A0616A"/>
<path d="M226.084 290.383C221.722 312.274 211.107 329.156 186.094 334.507C166.971 318.02 159.281 296.467 160.442 270.991C160.515 269.407 160.907 267.854 161.597 266.426C162.287 264.998 163.259 263.724 164.455 262.681C165.651 261.639 167.046 260.849 168.556 260.36C170.066 259.871 171.659 259.693 173.24 259.836V259.836C175.615 260.052 177.868 260.985 179.699 262.511C181.53 264.037 182.853 266.084 183.491 268.379L193.257 303.501L215.303 283.203L226.084 290.383Z" fill="#F8D69E"/>
<path d="M526.764 365H0V363.699H527L526.764 365Z" fill="#3F3D56"/>
<path d="M275.325 54.562C275.009 54.5623 274.705 54.6881 274.482 54.9116C274.258 55.1352 274.132 55.4383 274.132 55.7545V148.771C274.132 149.087 274.258 149.391 274.482 149.614C274.705 149.838 275.009 149.963 275.325 149.964H352.917C353.234 149.963 353.537 149.838 353.761 149.614C353.985 149.391 354.111 149.087 354.111 148.771V55.7545C354.111 55.4384 353.985 55.1352 353.761 54.9117C353.537 54.6881 353.234 54.5624 352.917 54.562H275.325Z" fill="#CDC8CD"/>
<path d="M283.383 140.722H344.86V63.804H283.383V140.722Z" fill="white"/>
<path d="M404.506 79.0087C404.317 79.0089 404.136 79.084 404.002 79.2175C403.869 79.3509 403.793 79.5319 403.793 79.7206V125.998C403.793 126.186 403.869 126.367 404.002 126.501C404.136 126.634 404.317 126.709 404.506 126.71H460.094C460.283 126.709 460.464 126.634 460.598 126.501C460.731 126.367 460.807 126.186 460.807 125.998V79.7207C460.807 79.5319 460.731 79.351 460.598 79.2175C460.464 79.084 460.283 79.009 460.094 79.0088L404.506 79.0087Z" fill="#CDC8CD"/>
<path d="M409.316 84.5263V121.192H455.284V84.5263H409.316Z" fill="white"/>
<path d="M324.976 61.1209H303.267C302.742 61.1229 302.226 60.9865 301.771 60.7253C301.316 60.4641 300.939 60.0875 300.676 59.6336C300.414 59.1797 300.276 58.6646 300.277 58.1405C300.278 57.6163 300.418 57.1018 300.682 56.6489L311.537 37.8667C311.546 37.8513 311.555 37.8358 311.564 37.8204C311.801 37.4209 312.13 37.0831 312.522 36.8346C312.915 36.586 313.361 36.4338 313.824 36.3903L313.84 36.3888C313.933 36.3804 314.027 36.376 314.121 36.376C314.646 36.3729 315.162 36.5094 315.616 36.7713C316.07 37.0333 316.446 37.4114 316.706 37.8667L327.561 56.6489C327.823 57.1021 327.96 57.6162 327.96 58.1395C327.96 58.6628 327.823 59.1769 327.561 59.6301C327.299 60.0833 326.922 60.4597 326.468 60.7213C326.015 60.983 325.5 61.1208 324.976 61.1209V61.1209ZM302.667 58.1367C302.668 58.2424 302.697 58.3461 302.75 58.4377C302.801 58.5291 302.876 58.6049 302.967 58.6574C303.058 58.7098 303.162 58.7369 303.267 58.7358H324.976C325.081 58.7369 325.185 58.7099 325.276 58.6574C325.366 58.605 325.442 58.5291 325.493 58.4377C325.546 58.3462 325.574 58.2426 325.575 58.1369C325.575 58.033 325.546 57.9311 325.493 57.8417L314.638 39.0592C314.586 38.9686 314.511 38.8933 314.42 38.841C314.329 38.7886 314.226 38.7611 314.121 38.7611C314.017 38.7611 313.914 38.7886 313.823 38.841C313.732 38.8933 313.657 38.9686 313.604 39.0592L302.749 57.8414C302.696 57.9308 302.668 58.0327 302.667 58.1367V58.1367Z" fill="#CDC8CD"/>
<path d="M314.121 42.0405C315.11 42.0405 315.912 41.2396 315.912 40.2517C315.912 39.2638 315.11 38.4629 314.121 38.4629C313.132 38.4629 312.331 39.2638 312.331 40.2517C312.331 41.2396 313.132 42.0405 314.121 42.0405Z" fill="#CDC8CD"/>
<path d="M438.185 80.4993H426.415C426.13 80.5005 425.851 80.4265 425.604 80.2849C425.357 80.1433 425.153 79.9391 425.01 79.693C424.868 79.4469 424.794 79.1676 424.794 78.8835C424.795 78.5993 424.87 78.3203 425.014 78.0748L430.899 67.8917L430.913 67.8666C431.042 67.65 431.22 67.4668 431.433 67.3321C431.646 67.1973 431.888 67.1148 432.139 67.0912L432.147 67.0904C432.198 67.0859 432.249 67.0835 432.3 67.0835C432.584 67.0818 432.864 67.1558 433.11 67.2978C433.357 67.4398 433.56 67.6448 433.701 67.8917L439.586 78.0748C439.728 78.3205 439.803 78.5993 439.803 78.883C439.803 79.1667 439.728 79.4454 439.586 79.6911C439.444 79.9368 439.24 80.1409 438.994 80.2827C438.748 80.4246 438.469 80.4993 438.185 80.4993V80.4993ZM426.09 78.8814C426.09 78.9387 426.106 78.995 426.134 79.0446C426.162 79.0941 426.203 79.1353 426.253 79.1637C426.302 79.1921 426.358 79.2068 426.415 79.2063H438.185C438.242 79.2069 438.298 79.1922 438.347 79.1637C438.397 79.1353 438.438 79.0942 438.465 79.0446C438.494 78.995 438.509 78.9388 438.51 78.8816C438.51 78.8252 438.494 78.77 438.465 78.7215L432.58 68.5382C432.552 68.4891 432.511 68.4483 432.462 68.4199C432.413 68.3915 432.357 68.3766 432.3 68.3766C432.243 68.3766 432.187 68.3915 432.138 68.4199C432.089 68.4483 432.048 68.4891 432.02 68.5382L426.134 78.7213C426.106 78.7698 426.09 78.8251 426.09 78.8814V78.8814Z" fill="#CDC8CD"/>
<path d="M432.3 70.1546C432.836 70.1546 433.271 69.7204 433.271 69.1848C433.271 68.6491 432.836 68.2149 432.3 68.2149C431.764 68.2149 431.329 68.6491 431.329 69.1848C431.329 69.7204 431.764 70.1546 432.3 70.1546Z" fill="#CDC8CD"/>
<path d="M284.086 111.434C284.944 109.467 286.194 107.694 287.76 106.226C289.326 104.757 291.176 103.622 293.195 102.891C295.296 102.081 297.546 101.734 299.793 101.874C302.04 102.014 304.231 102.637 306.214 103.7C310.872 106.17 314.596 110.052 319.326 112.416C323.925 114.692 328.987 115.883 334.12 115.897C339.931 115.943 345.653 114.459 350.708 111.596C350.905 111.472 351.045 111.277 351.101 111.051C351.156 110.826 351.121 110.588 351.004 110.387C350.886 110.187 350.696 110.04 350.472 109.977C350.248 109.914 350.009 109.941 349.805 110.051C345.222 112.616 340.076 114.009 334.824 114.106C329.572 114.202 324.378 112.998 319.705 110.603C314.959 108.117 311.199 104.103 306.364 101.774C304.312 100.779 302.083 100.201 299.805 100.073C297.527 99.9457 295.247 100.271 293.096 101.03C290.705 101.831 288.511 103.131 286.66 104.842C284.81 106.554 283.344 108.639 282.36 110.958C281.925 112.024 283.656 112.488 284.086 111.434V111.434Z" fill="#CDC8CD"/>
<path d="M282.671 128.155C292.608 125.938 302.916 125.974 312.837 128.259C321.65 130.301 330.748 133.974 339.835 131.235C343.895 130.011 347.616 127.563 349.701 123.795C350.259 122.787 348.713 121.884 348.155 122.892C344.228 129.986 335.029 131.183 327.763 130.019C322.908 129.241 318.228 127.682 313.45 126.566C303.176 124.16 292.49 124.113 282.195 126.43C281.071 126.681 281.547 128.406 282.671 128.155V128.155Z" fill="#CDC8CD"/>
<path d="M282.026 88.1703C291.554 86.5514 301.312 86.8983 310.701 89.1894C319.472 91.3362 328.045 96.2407 337.319 95.3937C341.613 95.0015 345.863 93.424 348.78 90.1426C349.543 89.2844 348.281 88.0148 347.514 88.8777C344.998 91.7085 341.374 93.1756 337.655 93.572C333.368 94.0288 329.157 93.1416 325.077 91.8811C320.561 90.4858 316.174 88.7182 311.582 87.5649C301.76 85.1009 291.529 84.7195 281.55 86.4454C280.417 86.6388 280.897 88.3629 282.026 88.1703V88.1703Z" fill="#CDC8CD"/>
<path d="M417.321 83.9222C421.438 88.1336 424.277 93.4229 425.511 99.1787C426.46 103.757 426.353 108.492 425.199 113.023C424.044 117.554 421.871 121.764 418.846 125.331C418.104 126.204 419.365 127.475 420.112 126.596C424.233 121.745 426.865 115.809 427.691 109.5C428.293 104.629 427.787 99.6864 426.211 95.0389C424.634 90.3913 422.029 86.159 418.587 82.6574C417.779 81.8341 416.513 83.0992 417.321 83.9222Z" fill="#CDC8CD"/>
<path d="M444.186 80.1051C438.699 84.1258 435.627 90.6156 435.194 97.3282C434.744 104.313 437.411 111.058 441.705 116.48C444.21 119.603 447.202 122.301 450.567 124.473C451.534 125.105 452.432 123.556 451.471 122.928C445.989 119.345 441.298 114.255 438.807 108.146C437.593 105.245 436.963 102.132 436.954 98.9874C436.945 95.8425 437.557 92.7267 438.755 89.8183C440.097 86.5779 442.284 83.7568 445.09 81.6497C446.01 80.9759 445.117 79.4229 444.186 80.1051V80.1051Z" fill="#CDC8CD"/>
<path d="M318.299 98.0891C322.914 98.0891 326.655 94.3517 326.655 89.7414C326.655 85.1311 322.914 81.3938 318.299 81.3938C313.684 81.3938 309.943 85.1311 309.943 89.7414C309.943 94.3517 313.684 98.0891 318.299 98.0891Z" fill="#CDC8CD"/>
</g>
<defs>
<clipPath id="clip0">
<rect width="527" height="365" fill="white"/>
</clipPath>
</defs>
</svg>
