<svg width="309" height="289" viewBox="0 0 309 289" fill="none" xmlns="http://www.w3.org/2000/svg">
<path d="M157.057 80.2982C174.047 80.2982 187.82 66.5248 187.82 49.5345C187.82 32.5442 174.047 18.7709 157.057 18.7709C140.066 18.7709 126.293 32.5442 126.293 49.5345C126.293 66.5248 140.066 80.2982 157.057 80.2982Z" fill="#FCDBD1"/>
<path d="M134.095 64.9163C134.095 64.9163 139.891 108.61 130.974 113.514C122.057 118.418 184.031 118.864 184.031 118.864C184.031 118.864 170.209 80.9669 176.451 69.3747L134.095 64.9163Z" fill="#FCDBD1"/>
<path d="M229.284 119.085L224.13 142.555L213.232 192.208L212.906 194.928L209.145 226.408L206.643 247.321L204.965 261.37C194.766 266.611 187.374 270.23 187.374 270.23C187.374 270.23 186.738 267.042 185.713 262.963C178.555 265.11 165.31 268.67 154.086 269.381C158.173 273.937 160.051 278.216 157.504 281.375C149.815 290.897 118.07 270.95 106.967 263.512C106.709 265.292 106.611 267.093 106.674 268.891L98.1779 262.357L99.0187 247.321L100.437 221.882L102.219 189.979C101.657 188.612 101.186 187.211 100.809 185.782C98.2071 176.529 95.0486 158.05 92.6264 142.555C90.6769 130.084 89.2127 119.545 88.9031 117.303C88.8612 117.01 88.8403 116.86 88.8403 116.86L135.875 96.0762C139.218 103.828 154.826 106.158 154.826 106.158C167.757 105.267 177.894 98.4482 177.894 98.4482L229.284 119.085Z" fill="#F0BD67"/>
<path d="M190.942 261.315C190.942 261.315 188.951 261.997 185.713 262.963C178.555 265.109 165.31 268.67 154.086 269.381C144.422 270 136.256 268.511 134.762 262.206C134.122 259.495 135.03 257.265 137.009 255.433C142.916 249.957 158.345 247.995 170.581 247.321C174.037 247.133 177.233 247.045 179.894 247.012C184.412 246.953 187.374 247.045 187.374 247.045L187.445 247.321L190.942 261.315Z" fill="#FCDBD1"/>
<path d="M131.464 20.4349L125.712 18.1321C125.712 18.1321 137.739 4.8911 154.472 6.04255L149.766 0.861218C149.766 0.861218 161.27 -3.74431 171.728 8.34528C177.226 14.7005 183.587 22.1708 187.552 30.5859H193.712L191.142 36.2469L200.14 41.9079L190.904 40.8911C191.454 43.9911 191.539 47.1559 191.155 50.2809C190.758 53.4068 189.163 56.2565 186.706 58.2286V58.2286C186.706 58.2286 179.572 43.4627 179.572 41.1599V46.9169C179.572 46.9169 173.82 41.7357 173.82 38.2815L170.683 42.3114L169.114 35.9787L149.766 42.3114L152.904 37.1301L140.877 38.8572L145.583 32.5245C145.583 32.5245 131.987 40.0086 131.464 46.3413C130.941 52.6739 126.962 58.6745 126.962 58.6745C126.962 58.6745 116.3 29.0703 131.464 20.4349Z" fill="#5E4145"/>
<path d="M262.722 226.981C259.589 230.378 251.824 235.495 242.412 241.034C238.91 243.092 235.183 245.213 231.38 247.321C222.306 252.354 212.805 257.341 204.965 261.369C194.766 266.611 187.374 270.23 187.374 270.23C187.374 270.23 186.738 267.042 185.713 262.963C184.341 257.504 182.274 250.446 180.12 247.321C180.044 247.213 179.969 247.112 179.894 247.012C179.266 246.188 178.635 245.707 178.011 245.707L209.145 226.408L222.599 218.066L212.906 194.927L200.748 165.903L208.086 142.555L215.462 119.085H229.284C229.284 119.085 233.861 129.075 239.713 143.006C240.588 145.09 241.491 147.261 242.412 149.503C254.452 178.788 269.462 219.681 262.722 226.981Z" fill="#F0BD67"/>
<path d="M157.504 281.375C149.814 290.897 118.07 270.95 106.967 263.511C104.549 261.892 103.11 260.867 103.11 260.867L113.268 247.321L116.485 243.033C116.485 243.033 119.363 244.56 123.618 247.045C123.772 247.137 123.927 247.229 124.086 247.321C127.755 249.476 132.361 252.291 137.009 255.433C143.422 259.771 149.907 264.72 154.086 269.381C158.173 273.937 160.051 278.216 157.504 281.375Z" fill="#FCDBD1"/>
<path d="M123.618 247.045C122.482 247.041 121.349 247.133 120.229 247.321C110.611 248.974 107.775 257.68 106.967 263.511C106.709 265.292 106.611 267.093 106.674 268.891L98.1778 262.357L95.082 259.976C87.6313 257.378 80.9921 252.764 75.2356 247.321C70.2418 242.516 65.7622 237.204 61.8694 231.47C57.9921 225.819 54.5356 219.89 51.5279 213.732C50.6886 212.014 50.2375 210.132 50.2064 208.22C50.1753 206.307 50.5651 204.412 51.348 202.667L61.8694 179.218L77.2479 144.947C77.3608 144.132 77.4849 143.334 77.6202 142.554C80.6699 125.068 88.8403 117.303 88.8403 117.303H95.082L99.2571 142.554L104.445 173.926L100.809 185.782L92.4088 213.163L100.437 221.882L123.618 247.045Z" fill="#F0BD67"/>
<path d="M130.682 173.951L136.018 180.177C138 179.799 140.071 179.355 142.203 178.856L140.67 173.951L144.418 178.323C167.007 172.767 195.007 161.965 195.007 161.965C195.007 161.965 164.778 164.182 142.208 159.251C132.222 157.069 121.947 162.02 117.849 171.384C115.467 176.827 115.841 181.543 124.289 181.543C127.144 181.494 129.99 181.226 132.804 180.742L130.682 173.951Z" fill="#F0BD67"/>
<path d="M252.326 276.271V278.81C252.328 279.507 252.199 280.198 251.946 280.848C251.833 281.137 251.698 281.417 251.54 281.684C251.041 282.521 250.334 283.214 249.487 283.695C248.64 284.176 247.682 284.429 246.708 284.429H59.8949C58.9207 284.429 57.9632 284.176 57.1161 283.695C56.269 283.214 55.5615 282.521 55.0629 281.684C54.9052 281.417 54.7695 281.137 54.6571 280.848C54.4041 280.198 54.275 279.507 54.2764 278.81V276.271C54.2762 275.533 54.4214 274.802 54.7037 274.121C54.986 273.439 55.3998 272.819 55.9216 272.298C56.4434 271.776 57.0628 271.362 57.7445 271.08C58.4263 270.798 59.157 270.652 59.8949 270.653H70.6631V269.469C70.6631 269.438 70.6691 269.407 70.6809 269.379C70.6926 269.35 70.7099 269.325 70.7316 269.303C70.7534 269.281 70.7792 269.264 70.8077 269.252C70.8361 269.24 70.8666 269.234 70.8974 269.234H76.5158C76.5466 269.234 76.5771 269.24 76.6055 269.252C76.634 269.264 76.6598 269.281 76.6816 269.303C76.7034 269.325 76.7206 269.35 76.7324 269.379C76.7441 269.407 76.7501 269.438 76.7501 269.469V270.653H80.26V269.469C80.26 269.438 80.266 269.407 80.2777 269.379C80.2895 269.35 80.3067 269.325 80.3285 269.303C80.3503 269.281 80.3761 269.264 80.4046 269.252C80.433 269.24 80.4635 269.234 80.4943 269.234H86.1127C86.1435 269.234 86.174 269.24 86.2024 269.252C86.2309 269.264 86.2567 269.281 86.2785 269.303C86.3002 269.325 86.3175 269.35 86.3292 269.379C86.341 269.407 86.347 269.438 86.347 269.469V270.653H89.8611V269.469C89.861 269.438 89.8671 269.407 89.8788 269.379C89.8906 269.35 89.9078 269.325 89.9296 269.303C89.9514 269.281 89.9772 269.264 90.0056 269.252C90.0341 269.24 90.0646 269.234 90.0954 269.234H95.7138C95.7445 269.234 95.775 269.24 95.8035 269.252C95.8319 269.264 95.8578 269.281 95.8795 269.303C95.9013 269.325 95.9186 269.35 95.9303 269.379C95.9421 269.407 95.9481 269.438 95.948 269.469V270.653H99.458V269.469C99.4579 269.438 99.464 269.407 99.4757 269.379C99.4875 269.35 99.5047 269.325 99.5265 269.303C99.5483 269.281 99.5741 269.264 99.6025 269.252C99.631 269.24 99.6615 269.234 99.6923 269.234H105.311C105.341 269.234 105.372 269.24 105.4 269.252C105.429 269.264 105.455 269.281 105.476 269.303C105.498 269.325 105.515 269.35 105.527 269.379C105.539 269.407 105.545 269.438 105.545 269.469V270.653H109.055V269.469C109.055 269.438 109.061 269.407 109.073 269.379C109.084 269.35 109.102 269.325 109.123 269.303C109.145 269.281 109.171 269.264 109.199 269.252C109.228 269.24 109.258 269.234 109.289 269.234H114.908C114.938 269.234 114.969 269.24 114.997 269.252C115.026 269.264 115.052 269.281 115.073 269.303C115.095 269.325 115.112 269.35 115.124 269.379C115.136 269.407 115.142 269.438 115.142 269.469V270.653H118.656V269.469C118.656 269.438 118.662 269.407 118.674 269.379C118.685 269.35 118.703 269.325 118.724 269.303C118.746 269.281 118.772 269.264 118.801 269.252C118.829 269.24 118.859 269.234 118.89 269.234H124.509C124.539 269.234 124.57 269.24 124.598 269.252C124.627 269.264 124.653 269.281 124.674 269.303C124.696 269.325 124.713 269.35 124.725 269.379C124.737 269.407 124.743 269.438 124.743 269.469V270.653H128.253V269.469C128.253 269.438 128.259 269.407 128.271 269.379C128.282 269.35 128.3 269.325 128.321 269.303C128.343 269.281 128.369 269.264 128.397 269.252C128.426 269.24 128.456 269.234 128.487 269.234H172.497C172.528 269.234 172.559 269.24 172.587 269.252C172.615 269.264 172.641 269.281 172.663 269.303C172.685 269.325 172.702 269.35 172.714 269.379C172.726 269.407 172.732 269.438 172.732 269.469V270.653H176.246V269.469C176.246 269.438 176.252 269.407 176.263 269.379C176.275 269.35 176.292 269.325 176.314 269.303C176.336 269.281 176.362 269.264 176.39 269.252C176.419 269.24 176.449 269.234 176.48 269.234H182.098C182.16 269.235 182.22 269.26 182.263 269.304C182.307 269.347 182.332 269.407 182.333 269.469V270.653H185.843V269.469C185.843 269.438 185.849 269.407 185.86 269.379C185.872 269.35 185.889 269.325 185.911 269.303C185.933 269.281 185.959 269.264 185.987 269.252C186.016 269.24 186.046 269.234 186.077 269.234H191.695C191.726 269.234 191.757 269.24 191.785 269.252C191.813 269.264 191.839 269.281 191.861 269.303C191.883 269.325 191.9 269.35 191.912 269.379C191.924 269.407 191.93 269.438 191.93 269.469V270.653H195.44V269.469C195.44 269.438 195.446 269.407 195.457 269.379C195.469 269.35 195.486 269.325 195.508 269.303C195.53 269.281 195.556 269.264 195.584 269.252C195.613 269.24 195.643 269.234 195.674 269.234H201.292C201.323 269.234 201.354 269.24 201.382 269.252C201.41 269.264 201.436 269.281 201.458 269.303C201.48 269.325 201.497 269.35 201.509 269.379C201.521 269.407 201.527 269.438 201.527 269.469V270.653H205.041V269.469C205.041 269.438 205.047 269.407 205.058 269.379C205.07 269.35 205.087 269.325 205.109 269.303C205.131 269.281 205.157 269.264 205.185 269.252C205.214 269.24 205.244 269.234 205.275 269.234H210.893C210.955 269.235 211.014 269.26 211.057 269.304C211.1 269.348 211.124 269.407 211.123 269.469V270.653H214.638V269.469C214.637 269.438 214.644 269.407 214.655 269.379C214.667 269.35 214.684 269.325 214.706 269.303C214.728 269.281 214.754 269.264 214.782 269.252C214.811 269.24 214.841 269.234 214.872 269.234H220.49C220.521 269.234 220.551 269.24 220.58 269.252C220.608 269.264 220.634 269.281 220.656 269.303C220.678 269.325 220.695 269.35 220.707 269.379C220.719 269.407 220.725 269.438 220.725 269.469V270.653H224.234V269.469C224.234 269.438 224.24 269.407 224.252 269.379C224.264 269.35 224.281 269.325 224.303 269.303C224.325 269.281 224.351 269.264 224.379 269.252C224.407 269.24 224.438 269.234 224.469 269.234H230.087C230.118 269.234 230.148 269.24 230.177 269.252C230.205 269.264 230.231 269.281 230.253 269.303C230.275 269.325 230.292 269.35 230.304 269.379C230.315 269.407 230.321 269.438 230.321 269.469V270.653H246.708C247.446 270.652 248.177 270.798 248.858 271.08C249.54 271.362 250.16 271.776 250.681 272.298C251.203 272.819 251.617 273.439 251.899 274.121C252.181 274.802 252.327 275.533 252.326 276.271V276.271Z" fill="#3F3D56"/>
<path d="M306.649 280.848H0V281.684H306.649V280.848Z" fill="#3F3D56"/>
<path d="M237.284 169.329H167.653V167.894H136.08V169.329H66.162C64.9128 169.329 63.7148 169.825 62.8315 170.708C61.9482 171.592 61.452 172.79 61.452 174.039V269.385C61.452 270.634 61.9482 271.832 62.8315 272.716C63.7148 273.599 64.9128 274.095 66.162 274.095H237.284C238.534 274.095 239.732 273.599 240.615 272.716C241.498 271.832 241.994 270.634 241.994 269.385V174.039C241.994 173.42 241.873 172.808 241.636 172.237C241.399 171.665 241.052 171.146 240.615 170.708C240.178 170.271 239.658 169.924 239.087 169.687C238.515 169.451 237.903 169.329 237.284 169.329V169.329Z" fill="#3F3D56"/>
<path d="M148.513 216.84C154.29 216.84 158.972 212.158 158.972 206.382C158.972 200.606 154.29 195.923 148.513 195.923C142.737 195.923 138.055 200.606 138.055 206.382C138.055 212.158 142.737 216.84 148.513 216.84Z" fill="#F0BD67"/>
<path d="M20.058 276.621H8.34428V288.335H20.058V276.621Z" fill="#F0BD67"/>
<path d="M12.9478 267.417V281.641H27.1716V267.417H12.9478ZM26.5524 281.022H13.5627V268.037H26.5524V281.022Z" fill="#3F3D56"/>
<path d="M291.147 276.621H279.434V288.335H291.147V276.621Z" fill="#F0BD67"/>
<path d="M284.037 267.417V281.641H298.261V267.417H284.037ZM297.642 281.022H284.652V268.037H297.642V281.022Z" fill="#3F3D56"/>
<path d="M37.6904 250.906C38.0807 264.272 30.2709 269.17 20.4698 269.457C20.2422 269.463 20.0155 269.467 19.7899 269.469C19.3354 269.472 18.8853 269.465 18.4396 269.446C9.57551 269.078 2.55906 264.373 2.19603 251.942C1.82036 239.078 17.7874 222.364 18.9854 221.128L18.9875 221.126C19.033 221.079 19.0563 221.056 19.0563 221.056C19.0563 221.056 37.3 237.541 37.6904 250.906Z" fill="#F0BD67"/>
<path d="M19.7642 267.431L25.9902 258.172L19.7769 268.427L19.7899 269.469C19.3354 269.472 18.8853 269.465 18.4396 269.446L18.7484 256.054L18.7399 255.951L18.7513 255.931L18.7809 254.665L11.9627 244.766L18.7728 253.718L18.797 253.986L19.0302 243.867L13.1412 233.604L19.047 242.09L18.9854 221.128L18.9855 221.058L18.9875 221.126L19.3784 237.648L24.7456 230.937L19.396 239.071L19.5131 248.121L24.4521 239.288L19.5313 249.452L19.5965 254.484L26.779 242.18L19.6183 256.24L19.7642 267.431Z" fill="#3F3D56"/>
<path d="M308.78 250.906C309.17 264.272 301.36 269.17 291.559 269.457C291.332 269.463 291.105 269.467 290.879 269.469C290.425 269.472 289.975 269.465 289.529 269.446C280.665 269.078 273.648 264.373 273.285 251.942C272.91 239.078 288.877 222.364 290.075 221.128L290.077 221.126C290.122 221.079 290.146 221.056 290.146 221.056C290.146 221.056 308.389 237.541 308.78 250.906Z" fill="#F0BD67"/>
<path d="M290.854 267.431L297.08 258.172L290.866 268.427L290.879 269.469C290.425 269.472 289.975 269.465 289.529 269.446L289.838 256.054L289.829 255.951L289.841 255.931L289.87 254.665L283.052 244.766L289.862 253.718L289.886 253.986L290.12 243.867L284.231 233.604L290.136 242.09L290.075 221.128L290.075 221.058L290.077 221.126L290.468 237.648L295.835 230.937L290.485 239.071L290.603 248.121L295.541 239.288L290.621 249.452L290.686 254.484L297.868 242.18L290.708 256.24L290.854 267.431Z" fill="#3F3D56"/>
</svg>
