<svg width="310" height="296" viewBox="0 0 310 296" fill="none" xmlns="http://www.w3.org/2000/svg">
<g clip-path="url(#clip0)">
<path d="M225.062 168.399V249.892L238.55 272.107L239.576 273.797H292.797L293.873 168.399H225.062Z" fill="#E6E6E6"/>
<path opacity="0.1" d="M225.062 168.399V249.892L238.55 272.107L239.378 168.399H225.062Z" fill="black"/>
<path d="M96.5785 166.226V247.719L83.0903 269.934L82.0638 271.623H28.8429L27.7676 166.226H96.5785Z" fill="#E6E6E6"/>
<path opacity="0.1" d="M96.5785 166.226V247.719L83.0903 269.934L82.2626 166.226H96.5785Z" fill="black"/>
<path d="M310 164.596V169.485H20.7789V162.423L47.6581 148.297H286.346L310 164.596Z" fill="#E6E6E6"/>
<path opacity="0.1" d="M310 164.596V169.485H20.7789V162.423L310 164.596Z" fill="black"/>
<path d="M62.1732 189.044H49.2709L43.895 185.241H68.0865L62.1732 189.044Z" fill="#3F3D56"/>
<path d="M62.1732 204.799H49.2709L43.895 200.996H68.0865L62.1732 204.799Z" fill="#3F3D56"/>
<path d="M62.1732 227.074H49.2709L43.895 223.271H68.0865L62.1732 227.074Z" fill="#3F3D56"/>
<path d="M62.1732 249.349H49.2709L43.895 245.546H68.0865L62.1732 249.349Z" fill="#3F3D56"/>
<path d="M259.467 191.217H272.369L277.745 187.414H253.553L259.467 191.217Z" fill="#3F3D56"/>
<path d="M259.467 206.972H272.369L277.745 203.169H253.553L259.467 206.972Z" fill="#3F3D56"/>
<path d="M259.467 229.247H272.369L277.745 225.444H253.553L259.467 229.247Z" fill="#3F3D56"/>
<path d="M259.467 251.522H272.369L277.745 247.719H253.553L259.467 251.522Z" fill="#3F3D56"/>
<path d="M268.253 54.0591H159.635C159.096 54.059 158.562 54.1663 158.063 54.3749C157.565 54.5835 157.112 54.8893 156.73 55.2748C156.349 55.6603 156.046 56.118 155.84 56.6217C155.634 57.1254 155.527 57.6652 155.527 58.2104V132.154C155.527 132.699 155.634 133.239 155.84 133.743C156.046 134.246 156.349 134.704 156.73 135.089C157.112 135.475 157.565 135.781 158.063 135.989C158.562 136.198 159.096 136.305 159.635 136.305H200.867L199.323 146.272C199.323 146.272 190.495 151.012 196.702 151.151C202.909 151.291 232.152 151.151 232.152 151.151C232.152 151.151 237.807 151.151 228.841 146.133L227.388 136.305H268.253C268.792 136.305 269.326 136.198 269.825 135.989C270.323 135.781 270.776 135.475 271.158 135.089C271.539 134.704 271.842 134.246 272.048 133.743C272.254 133.239 272.361 132.699 272.361 132.154V58.2104C272.361 57.6652 272.254 57.1254 272.048 56.6217C271.842 56.118 271.539 55.6603 271.158 55.2748C270.776 54.8893 270.323 54.5835 269.825 54.3749C269.326 54.1663 268.792 54.059 268.253 54.0591V54.0591Z" fill="#3F3D56"/>
<path d="M268.429 58.4502H159.459V120.065H268.429V58.4502Z" fill="#F2F2F2"/>
<path d="M213.944 57.1956C214.325 57.1956 214.634 56.8835 214.634 56.4986C214.634 56.1136 214.325 55.8016 213.944 55.8016C213.563 55.8016 213.254 56.1136 213.254 56.4986C213.254 56.8835 213.563 57.1956 213.944 57.1956Z" fill="#F2F2F2"/>
<path d="M213.944 133.308C215.392 133.308 216.565 132.122 216.565 130.659C216.565 129.197 215.392 128.011 213.944 128.011C212.497 128.011 211.323 129.197 211.323 130.659C211.323 132.122 212.497 133.308 213.944 133.308Z" fill="#F2F2F2"/>
<path d="M209.86 158.679V160.073H135.65V158.958L135.752 158.679L137.581 153.66H208.343L209.86 158.679Z" fill="#3F3D56"/>
<path d="M238.419 157.314C238.284 157.898 237.773 158.514 236.62 159.097C232.482 161.188 224.068 158.539 224.068 158.539C224.068 158.539 217.585 157.424 217.585 154.497C217.767 154.371 217.956 154.257 218.153 154.155C219.893 153.225 225.661 150.93 235.89 154.253C236.643 154.492 237.316 154.937 237.834 155.54C238.063 155.768 238.236 156.048 238.337 156.356C238.439 156.664 238.467 156.993 238.419 157.314Z" fill="#3F3D56"/>
<path opacity="0.1" d="M238.419 157.314C233.354 159.275 228.839 159.422 224.206 156.17C222.453 154.861 220.332 154.154 218.153 154.155C219.893 153.225 225.661 150.93 235.889 154.252C236.643 154.492 237.316 154.937 237.834 155.54C238.063 155.768 238.236 156.048 238.337 156.356C238.439 156.664 238.467 156.993 238.419 157.314Z" fill="black"/>
<path d="M232.068 156.17C233.058 156.17 233.861 155.92 233.861 155.612C233.861 155.304 233.058 155.054 232.068 155.054C231.078 155.054 230.275 155.304 230.275 155.612C230.275 155.92 231.078 156.17 232.068 156.17Z" fill="#F2F2F2"/>
<path opacity="0.1" d="M209.86 158.679V160.073H135.65V158.958L135.752 158.679H209.86Z" fill="black"/>
<path d="M41.2621 0.997106C40.509 0.934613 39.7548 1.10487 39.0996 1.48533C38.4562 1.93059 38.0507 2.71066 37.6368 3.43656C36.0542 6.24509 33.9117 8.69087 31.345 10.6189C29.4755 12.003 27.0987 13.7288 27.4186 16.2807C27.5873 17.1235 27.8954 17.9314 28.3298 18.6707C30.0545 22.1891 34.7608 24.908 34.2978 28.9228C36.0113 26.0238 33.7194 24.5904 35.4329 21.6914C36.2489 20.3108 37.6665 18.7524 38.8985 19.6194C39.311 19.9097 39.5819 20.4304 40.0114 20.6851C41.0362 21.2929 42.1266 20.131 43.0338 19.3079C46.1621 16.4699 50.6109 17.2134 54.5037 18.0977C56.3416 18.5151 58.3602 19.0628 59.4466 20.8379C60.875 23.1719 58.0895 25.6925 57.3857 28.3313C57.3282 28.5561 57.3255 28.7917 57.3778 29.0178C57.43 29.244 57.5357 29.4539 57.6858 29.6298C57.8358 29.8057 58.0258 29.9422 58.2395 30.0277C58.4531 30.1132 58.6841 30.1451 58.9126 30.1207C60.0807 30.0043 61.4644 29.9088 61.5335 29.3908C63.0031 29.4437 64.8038 29.2755 65.4335 27.729C65.626 27.1171 65.7277 26.4798 65.7354 25.8378C65.9665 23.24 67.0575 20.87 67.7802 18.3975C68.503 15.9251 68.8172 13.0275 67.5976 10.8354C67.1623 10.106 66.6239 9.44479 65.9996 8.87263C59.0781 2.10339 49.9778 0.987058 41.2621 0.997106Z" fill="#2F2E41"/>
<path d="M35.8031 33.9933C35.8031 33.9933 37.3084 46.6705 31.7889 47.6847C26.2694 48.6989 36.8066 65.9399 36.8066 65.9399L61.895 68.9824L55.8738 48.6989C55.8738 48.6989 51.8597 47.1776 54.3685 37.0358C56.8774 26.894 35.8031 33.9933 35.8031 33.9933Z" fill="#FFB8B8"/>
<path d="M20.499 251.788L22.5063 279.678H33.0431L30.0328 251.788H20.499Z" fill="#FFB8B8"/>
<path d="M97.7716 199.051L99.2767 222.377L110.818 217.306L106.302 198.037L97.7716 199.051Z" fill="#FFB8B8"/>
<path d="M12.9725 145.299C12.9725 145.299 13.4743 174.711 16.4849 184.345C19.4956 193.98 18.9938 194.487 18.492 196.008C17.9902 197.53 17.4885 196.515 17.4885 199.051C17.4885 201.586 16.4849 241.646 17.4885 245.196C18.492 248.746 14.4779 254.831 17.4885 255.338C20.4991 255.845 34.5486 255.338 35.0504 252.295C35.5522 249.253 31.0362 248.239 33.0433 246.21C35.0504 244.182 38.061 202.601 38.061 202.601L45.0858 173.696L58.1318 158.484H85.7291L94.2591 191.952C94.2591 191.952 90.7467 201.586 93.2556 201.586C95.7645 201.586 110.818 204.629 110.818 193.473C110.818 182.317 105.8 149.356 104.796 148.342C103.793 147.328 105.298 143.778 103.793 142.257C102.287 140.736 84.7255 130.087 78.2025 128.058C71.6795 126.03 62.5289 123.616 62.5289 123.616L12.9725 145.299Z" fill="#2F2E41"/>
<path d="M110.818 213.249C110.818 213.249 103.291 210.714 99.7787 218.32C96.2663 225.927 97.7716 227.955 97.7716 227.955C97.7716 227.955 109.312 232.012 111.319 229.983C112.193 229.101 114.965 228.794 117.82 228.73C122.167 228.631 123.323 222.416 119.218 220.968C119.095 220.925 118.971 220.888 118.846 220.856C114.832 219.842 110.818 213.249 110.818 213.249Z" fill="#2F2E41"/>
<path d="M47.0928 42.3603C55.4063 42.3603 62.1458 35.5493 62.1458 27.1476C62.1458 18.7458 55.4063 11.9349 47.0928 11.9349C38.7792 11.9349 32.0397 18.7458 32.0397 27.1476C32.0397 35.5493 38.7792 42.3603 47.0928 42.3603Z" fill="#FFB8B8"/>
<path d="M27.5238 54.0233C27.5238 54.0233 52.1105 59.0942 58.1318 50.9808C64.153 42.8674 66.6618 73.7998 66.6618 73.7998L69.6725 106.254L65.1565 124.002C65.1565 124.002 41.5734 143.271 34.0469 144.792C26.5203 146.314 14.9796 147.328 14.9796 147.328C14.9796 147.328 18.492 91.0409 18.492 90.0267C18.492 89.0125 27.5238 54.0233 27.5238 54.0233Z" fill="#F0BD67"/>
<path d="M35.0013 44.513C35.0013 44.513 29.531 41.3461 28.0257 44.3886C26.5204 47.4312 12.4708 55.0375 10.9655 55.0375C9.4602 55.0375 13.9761 97.1259 11.969 102.197C9.96197 107.268 0.428358 144.285 5.94782 147.328C11.4673 150.37 7.45313 144.285 12.9726 151.892C18.492 159.498 45.5876 159.498 47.0929 156.455C48.5982 153.413 35.0504 130.594 37.5593 109.296C40.0681 87.9984 44.0823 58.5871 40.5699 54.5304C37.0575 50.4737 35.0013 44.513 35.0013 44.513Z" fill="#2F2E41"/>
<path d="M53.1141 47.9382L53.8131 45.5075C53.8131 45.5075 74.6902 52.5021 75.6938 57.0659C76.6973 61.6297 76.1955 93.5763 72.6831 96.1118C69.1708 98.6472 64.1531 102.704 67.6654 108.789C71.1778 114.874 75.192 121.466 78.2026 121.973C81.2132 122.48 86.7327 126.03 85.2274 129.58C83.7221 133.129 65.6584 126.537 65.6584 126.537C65.6584 126.537 53.6159 117.41 54.1177 103.211C54.6194 89.0125 53.1141 47.9382 53.1141 47.9382Z" fill="#2F2E41"/>
<path d="M70.676 107.775L58.6335 130.594C58.6335 130.594 41.0716 148.849 51.107 150.877C61.1424 152.906 66.6618 134.143 66.6618 134.143L79.7078 115.381L70.676 107.775Z" fill="#FFB8B8"/>
<path d="M41.9954 4.97706C41.3886 4.93163 40.7809 5.05075 40.2349 5.32213C39.7413 5.68647 39.3345 6.15765 39.0442 6.70125C37.7058 8.73578 35.9612 10.465 33.9224 11.7777C32.4006 12.756 30.4658 13.9757 30.7261 15.7794C30.8675 16.3842 31.119 16.957 31.4679 17.4686C32.8767 19.9805 33.4375 22.8878 33.0656 25.7506L37.2501 19.6037C37.9144 18.6279 39.0684 17.5264 40.0713 18.1392C40.4071 18.3444 40.6276 18.7124 40.9772 18.8924C41.8115 19.322 42.6991 18.5008 43.4376 17.919C45.9841 15.9131 49.6056 16.4386 52.7746 17.0636C54.2706 17.3587 55.9139 17.7458 56.7983 19.0005C58.268 21.0854 56.7333 24.0981 57.5911 26.5068C57.8312 26.3369 58.0351 26.12 58.1907 25.869C58.3464 25.618 58.4505 25.338 58.4971 25.0455C59.6934 25.0829 61.1593 24.964 61.6719 23.871C61.8278 23.4426 61.9109 22.9906 61.9176 22.5343C62.1057 20.6982 62.9938 19.0231 63.5822 17.2756C64.1705 15.528 64.4264 13.48 63.4335 11.9307C63.0703 11.4057 62.6319 10.9382 62.1327 10.5434C56.4983 5.75897 49.0903 4.96996 41.9954 4.97706Z" fill="#2F2E41"/>
<path d="M70.6759 55.0375L75.3509 56.2916C75.3509 56.2916 86.2308 84.4487 83.7219 103.718C81.2131 122.988 79.7077 118.931 79.7077 118.931C79.7077 118.931 75.6936 109.803 66.6617 111.832L70.6759 55.0375Z" fill="#2F2E41"/>
<path d="M21.1941 275.992C19.9841 277.654 20.2267 280.029 19.1549 281.785C18.2258 283.307 16.4749 284.105 15.3128 285.454C14.942 285.902 14.6114 286.383 14.325 286.89C13.247 288.715 12.3708 291.054 13.4324 292.888C14.2865 294.364 16.0817 294.941 17.7281 295.334C19.8091 295.831 21.9713 296.229 24.0762 295.849C26.1812 295.469 28.2385 294.167 28.989 292.143C29.1365 291.634 29.3119 291.134 29.5143 290.645C30.6552 288.375 34.2339 288.351 35.4016 286.095C36.2187 284.516 35.4676 282.607 34.7167 280.995L32.4235 276.072C31.6624 274.438 28.5773 275.377 26.969 274.986C24.8714 274.475 22.7031 273.913 21.1941 275.992Z" fill="#2F2E41"/>
<path d="M4.4425 117.917L25.5168 150.877C25.5168 150.877 38.5628 167.611 42.577 160.005C46.5911 152.399 28.5274 139.721 28.5274 139.721L14.9796 114.367L4.4425 117.917Z" fill="#FFB8B8"/>
<path d="M14.9796 56.0517L10.9654 55.0375C10.9654 55.0375 2.93714 57.573 0.93007 68.2218C-1.077 78.8707 0.428298 121.466 2.93714 121.973C5.44599 122.48 15.3283 114.557 16.9101 116.237C18.492 117.917 13.4743 109.296 14.9796 104.732C16.4849 100.168 14.9796 56.0517 14.9796 56.0517Z" fill="#2F2E41"/>
<path d="M203.63 78.6866H190.661V81.8418H203.63V78.6866Z" fill="#F0BD67"/>
<path d="M248.54 78.6866H243.977V81.8418H248.54V78.6866Z" fill="#F0BD67"/>
<path d="M257.667 78.6866H253.104V81.8418H257.667V78.6866Z" fill="#F0BD67"/>
<path d="M239.174 78.6866H208.193V81.8418H239.174V78.6866Z" fill="#F0BD67"/>
<path d="M187.299 99.0741H174.33V102.229H187.299V99.0741Z" fill="#F0BD67"/>
<path d="M232.209 99.0741H227.646V102.229H232.209V99.0741Z" fill="#F0BD67"/>
<path d="M241.336 99.0741H236.772V102.229H241.336V99.0741Z" fill="#F0BD67"/>
<path d="M222.843 99.0741H191.862V102.229H222.843V99.0741Z" fill="#F0BD67"/>
<path d="M240.855 85.7251H227.886V88.8803H240.855V85.7251Z" fill="#F0BD67"/>
<path d="M258.387 85.7251H245.418V88.8803H258.387V85.7251Z" fill="#F0BD67"/>
<path d="M178.893 85.7251H174.33V88.8803H178.893V85.7251Z" fill="#F0BD67"/>
<path d="M188.02 85.7251H183.456V88.8803H188.02V85.7251Z" fill="#F0BD67"/>
<path d="M223.564 85.7251H192.583V88.8803H223.564V85.7251Z" fill="#F0BD67"/>
<path d="M213.957 92.521H200.988V95.6762H213.957V92.521Z" fill="#F0BD67"/>
<path d="M196.425 92.521H183.456V95.6762H196.425V92.521Z" fill="#F0BD67"/>
<path d="M178.893 92.521H174.33V95.6762H178.893V92.521Z" fill="#F0BD67"/>
<path d="M258.387 92.521H253.824V95.6762H258.387V92.521Z" fill="#F0BD67"/>
<path d="M249.261 92.521H218.28V95.6762H249.261V92.521Z" fill="#F0BD67"/>
</g>
<defs>
<clipPath id="clip0">
<rect width="310" height="296" fill="white"/>
</clipPath>
</defs>
</svg>
